<?xml version="1.0" encoding="utf-8"?>
<!-- Generator: Adobe Illustrator 25.2.3, SVG Export Plug-In . SVG Version: 6.00 Build 0)  -->
<svg version="1.1" id="Layer_1" xmlns="http://www.w3.org/2000/svg" xmlns:xlink="http://www.w3.org/1999/xlink" x="0px" y="0px"
	 viewBox="0 0 351.5 145.5" style="enable-background:new 0 0 351.5 145.5;" xml:space="preserve">
<style type="text/css">
	.st0{opacity:0.9882;fill:none;stroke:#FFFDFD;stroke-linecap:round;stroke-miterlimit:8;enable-background:new    ;}
</style>
<path class="st0" d="M1.3,73.1c-4.7-42.4,29-70.5,71.8-71.6c46.1,1.4,66.1,32.3,71.8,71.6c-0.5,40.1-33.5,79.2-71.8,71.6
	C29.5,142.6,1.9,113,1.3,73.1z"/>
<path class="st0" d="M206.5,72.4c0.2-41.3,33.6-70.4,71.6-71.6c38.4-0.4,72.4,29.4,71.6,71.6c6.6,35.2-33.8,76.1-71.6,71.6
	C237.5,147.5,208.1,110.6,206.5,72.4z"/>
<path class="st0" d="M103.3,72.8C99.1,33.3,135.9,1.5,175.1,1c42.4,5.6,71.9,35.8,71.8,71.8c-1.6,37.2-31.7,72.3-71.8,71.8
	C136.1,142.1,104.1,113.8,103.3,72.8z"/>
</svg>
